<svg width="16" height="39" viewBox="0 0 16 39" fill="none" xmlns="http://www.w3.org/2000/svg">
<path fill-rule="evenodd" clip-rule="evenodd" d="M2.99394 25.8695C5.86127 23.1392 10.3998 23.2497 13.1307 26.1177C15.861 28.985 15.7499 33.5241 12.8826 36.2544C10.0147 38.9852 5.47619 38.8736 2.74586 36.0062C0.0149885 33.1383 0.126051 28.6004 2.99394 25.8695Z" stroke="#E659F6" stroke-width="1.5" stroke-linecap="round" stroke-linejoin="round"/>
<path d="M8.76211 34.9995C9.94428 35.3828 11.0477 34.7987 11.5606 33.5236" stroke="#FB5A8C" stroke-width="1.5" stroke-linecap="round" stroke-linejoin="round"/>
<path fill-rule="evenodd" clip-rule="evenodd" d="M4.98144 22.6968C4.48674 22.6949 4.08724 22.2923 4.08913 21.7976L4.14782 6.46609C4.1347 6.40543 4.12775 6.34248 4.12767 6.27794L4.12447 3.58923C4.12212 1.60933 5.73646 0.00237224 7.73022 -9.29392e-07C9.72397 -0.00237409 11.3421 1.60073 11.3445 3.58064L11.3477 6.26934C11.3478 6.35202 11.3366 6.4321 11.3156 6.50814L11.2576 21.6711C11.2557 22.1618 10.8564 22.5581 10.3657 22.5562C9.87499 22.5543 9.47873 22.155 9.48061 21.6643L9.54194 5.64253L9.53949 3.58279C9.53831 2.59283 8.72923 1.79128 7.73235 1.79247C6.73547 1.79365 5.9283 2.59713 5.92948 3.58708L5.93015 4.14712C5.94177 4.20526 5.94775 4.26544 5.94752 4.32704L5.88061 21.8045C5.87871 22.2992 5.47614 22.6987 4.98144 22.6968Z" fill="#E659F6"/>
</svg>
