<svg width="170" height="90" viewBox="0 0 170 90" fill="none" xmlns="http://www.w3.org/2000/svg">
<path d="M3.825e-06 84.0819L3.825e-06 85.9057H16.8609V84.0819H3.825e-06Z" fill="#442A2A"/>
<path d="M0.16997 79.5025L0.0731072 81.3238L16.9102 82.2192L17.0071 80.398L0.16997 79.5025Z" fill="#442A2A"/>
<path d="M0.578841 74.9855L0.385625 76.7989L17.1517 78.5853L17.3449 76.7718L0.578841 74.9855Z" fill="#442A2A"/>
<path d="M1.22087 70.537L0.931988 72.3378L17.5801 75.0085L17.869 73.2077L1.22087 70.537Z" fill="#442A2A"/>
<path d="M2.08924 66.1655L1.70611 67.9485L18.1908 71.4907L18.574 69.7077L2.08924 66.1655Z" fill="#442A2A"/>
<path d="M3.17844 61.8766L2.70235 63.6372L18.9787 68.0386L19.4548 66.278L3.17844 61.8766Z" fill="#442A2A"/>
<path d="M4.48122 57.6787L3.9142 59.4121L19.9396 64.6544L20.5066 62.921L4.48122 57.6787Z" fill="#442A2A"/>
<path d="M5.99169 53.5769L5.3357 55.2787L21.0683 61.3433L21.7243 59.6415L5.99169 53.5769Z" fill="#442A2A"/>
<path d="M7.70331 49.5787L6.96059 51.2445L22.3601 58.1109L23.1028 56.4451L7.70331 49.5787Z" fill="#442A2A"/>
<path d="M9.60962 45.6896L8.78269 47.3152L23.811 54.96L24.6379 53.3345L9.60962 45.6896Z" fill="#442A2A"/>
<path d="M11.7042 41.9166L10.7957 43.4979L25.4156 51.8975L26.3241 50.3162L11.7042 41.9166Z" fill="#442A2A"/>
<path d="M13.9805 38.2656L12.9931 39.799L27.1693 48.9275L28.1567 47.3941L13.9805 38.2656Z" fill="#442A2A"/>
<path d="M16.4328 34.7418L15.3694 36.2235L29.0679 46.0545L30.1313 44.5727L16.4328 34.7418Z" fill="#442A2A"/>
<path d="M19.0542 31.3525L17.9178 32.7789L31.1057 43.2849L32.242 41.8584L19.0542 31.3525Z" fill="#442A2A"/>
<path d="M21.839 28.1023L20.6326 29.47L33.2771 40.6239L34.4835 39.2562L21.839 28.1023Z" fill="#442A2A"/>
<path d="M24.7813 24.9976L23.508 26.3032L35.5788 38.0754L36.8521 36.7698L24.7813 24.9976Z" fill="#442A2A"/>
<path d="M27.8744 22.0445L26.5373 23.2849L38.0047 35.6459L39.3417 34.4055L27.8744 22.0445Z" fill="#442A2A"/>
<path d="M31.1129 19.2488L29.7154 20.4207L40.5493 33.3404L41.9468 32.1685L31.1129 19.2488Z" fill="#442A2A"/>
<path d="M34.4907 16.6161L33.0362 17.7164L43.2082 31.1635L44.6627 30.0632L34.4907 16.6161Z" fill="#442A2A"/>
<path d="M38.002 14.153L36.494 15.1786L45.9767 29.1204L47.4846 28.0947L38.002 14.153Z" fill="#442A2A"/>
<path d="M41.6398 11.8654L40.082 12.8136L48.8486 27.2164L50.4065 26.2682L41.6398 11.8654Z" fill="#442A2A"/>
<path d="M45.3989 9.75925L43.7949 10.6273L51.8198 25.4561L53.4238 24.588L45.3989 9.75925Z" fill="#442A2A"/>
<path d="M49.2725 7.84128L47.6264 8.62641L54.8849 23.8451L56.531 23.06L49.2725 7.84128Z" fill="#442A2A"/>
<path d="M53.2546 6.11712L51.5703 6.81682L58.0389 22.3876L59.7232 21.6879L53.2546 6.11712Z" fill="#442A2A"/>
<path d="M57.3389 4.59318L55.6208 5.20505L61.2776 21.0889L62.9957 20.477L57.3389 4.59318Z" fill="#442A2A"/>
<path d="M61.52 3.2755L59.7724 3.79721L64.5955 19.9537L66.3431 19.432L61.52 3.2755Z" fill="#442A2A"/>
<path d="M65.7884 2.17078L64.0161 2.60063L67.9902 18.9866L69.7625 18.5568L65.7884 2.17078Z" fill="#442A2A"/>
<path d="M70.1397 1.28491L68.3471 1.62112L71.4553 18.1932L73.2479 17.857L70.1397 1.28491Z" fill="#442A2A"/>
<path d="M74.5658 0.623772L72.758 0.865024L74.9883 17.5778L76.7961 17.3365L74.5658 0.623772Z" fill="#442A2A"/>
<path d="M79.0597 0.193512L77.2416 0.338704L78.5839 17.1462L80.4019 17.001L79.0597 0.193512Z" fill="#442A2A"/>
<path d="M83.6145 2.41342e-06L81.7914 0.0484322L82.2392 16.9035L84.0623 16.8551L83.6145 2.41342e-06Z" fill="#442A2A"/>
<path d="M86.3856 0.000109604L85.9378 16.8552L87.7609 16.9036L88.2086 0.0485389L86.3856 0.000109604Z" fill="#442A2A"/>
<path d="M90.9402 0.193425L89.5979 17.0008L91.4159 17.146L92.7582 0.338615L90.9402 0.193425Z" fill="#442A2A"/>
<path d="M95.4342 0.623765L93.2038 17.3365L95.0116 17.5778L97.242 0.865018L95.4342 0.623765Z" fill="#442A2A"/>
<path d="M99.8599 1.28436L96.7517 17.8564L98.5443 18.1926L101.652 1.62057L99.8599 1.28436Z" fill="#442A2A"/>
<path d="M104.211 2.1709L100.237 18.5569L102.01 18.9868L105.984 2.60075L104.211 2.1709Z" fill="#442A2A"/>
<path d="M108.48 3.27537L103.656 19.4315L105.404 19.9533L110.228 3.79716L108.48 3.27537Z" fill="#442A2A"/>
<path d="M112.661 4.59315L107.004 20.4771L108.722 21.0889L114.379 5.20499L112.661 4.59315Z" fill="#442A2A"/>
<path d="M116.745 6.11685L110.277 21.6877L111.961 22.3874L118.429 6.81654L116.745 6.11685Z" fill="#442A2A"/>
<path d="M120.728 7.84141L113.469 23.0601L115.115 23.8452L122.374 8.62653L120.728 7.84141Z" fill="#442A2A"/>
<path d="M124.601 9.75978L116.576 24.5884L118.18 25.4565L126.205 10.6278L124.601 9.75978Z" fill="#442A2A"/>
<path d="M128.361 11.8658L119.593 26.2682L121.151 27.2165L129.918 12.8142L128.361 11.8658Z" fill="#442A2A"/>
<path d="M131.998 14.153L122.516 28.095L124.024 29.1207L133.506 15.1787L131.998 14.153Z" fill="#442A2A"/>
<path d="M135.509 16.616L125.337 30.0631L126.792 31.1634L136.964 17.7163L135.509 16.616Z" fill="#442A2A"/>
<path d="M138.887 19.2485L128.053 32.1683L129.45 33.3402L140.284 20.4204L138.887 19.2485Z" fill="#442A2A"/>
<path d="M142.125 22.0448L130.658 34.4063L131.995 35.6466L143.462 23.2852L142.125 22.0448Z" fill="#442A2A"/>
<path d="M145.219 24.9978L133.148 36.7701L134.421 38.0757L146.492 26.3034L145.219 24.9978Z" fill="#442A2A"/>
<path d="M148.161 28.1021L135.516 39.256L136.723 40.6236L149.367 29.4697L148.161 28.1021Z" fill="#442A2A"/>
<path d="M150.946 31.352L137.758 41.8585L138.895 43.285L152.082 32.7784L150.946 31.352Z" fill="#442A2A"/>
<path d="M153.567 34.742L139.869 44.5729L140.932 46.0546L154.631 36.2237L153.567 34.742Z" fill="#442A2A"/>
<path d="M156.019 38.2654L141.843 47.3939L142.83 48.9273L157.007 39.7988L156.019 38.2654Z" fill="#442A2A"/>
<path d="M158.296 41.9167L143.676 50.3156L144.584 51.897L159.204 43.4981L158.296 41.9167Z" fill="#442A2A"/>
<path d="M160.39 45.6899L145.362 53.3348L146.189 54.9603L161.217 47.3155L160.39 45.6899Z" fill="#442A2A"/>
<path d="M162.296 49.5787L146.897 56.4451L147.639 58.1108L163.039 51.2444L162.296 49.5787Z" fill="#442A2A"/>
<path d="M164.008 53.5771L148.276 59.6418L148.932 61.3435L164.664 55.2789L164.008 53.5771Z" fill="#442A2A"/>
<path d="M165.519 57.6785L149.493 62.9208L150.06 64.6541L166.086 59.4118L165.519 57.6785Z" fill="#442A2A"/>
<path d="M166.821 61.8766L150.545 66.278L151.021 68.0386L167.298 63.6372L166.821 61.8766Z" fill="#442A2A"/>
<path d="M167.911 66.1652L151.426 69.7083L151.809 71.4914L168.294 67.9483L167.911 66.1652Z" fill="#442A2A"/>
<path d="M168.779 70.5369L152.131 73.2076L152.42 75.0084L169.068 72.3377L168.779 70.5369Z" fill="#442A2A"/>
<path d="M169.421 74.9849L152.655 76.7722L152.849 78.5856L169.615 76.7983L169.421 74.9849Z" fill="#442A2A"/>
<path d="M169.83 79.5028L152.993 80.3983L153.09 82.2195L169.927 81.324L169.83 79.5028Z" fill="#442A2A"/>
<path d="M170 85.9057V84.0819H153.139V85.9057H170Z" fill="#442A2A"/>
<path d="M0 85.9057H16.8609V84.0819H0V85.9057ZM0.0729963 81.3239L16.9103 82.2194L17.0071 80.3982L0.169956 79.5027L0.0729963 81.3239ZM0.385537 76.7988L17.1516 78.5857L17.3449 76.7721L0.578858 74.9853L0.385537 76.7988ZM0.93191 72.3379L17.5801 75.0083L17.8689 73.2075L1.22079 70.5371L0.93191 72.3379ZM1.70619 67.9483L18.1907 71.4911L18.574 69.7081L2.08943 66.1652L1.70619 67.9483ZM2.70228 63.6373L18.9788 68.0384L19.4548 66.2778L3.17836 61.8768L2.70228 63.6373ZM3.91424 59.4118L19.9395 64.6544L20.5065 62.921L4.48127 57.6785L3.91424 59.4118ZM5.33577 55.2786L21.0682 61.3435L21.7242 59.6418L5.99184 53.5769L5.33577 55.2786ZM6.96065 51.2444L22.3603 58.1104L23.103 56.4448L7.70335 49.5786L6.96065 51.2444ZM8.78276 47.3153L23.811 54.9601L24.638 53.3346L9.60958 45.6899L8.78276 47.3153ZM10.7956 43.4982L25.4158 51.8973L26.3242 50.316L11.7041 41.9168L10.7956 43.4982ZM12.9932 39.7989L27.1696 48.9271L28.1569 47.3938L13.9806 38.2656L12.9932 39.7989ZM15.3693 36.2238L29.0677 46.0547L30.1311 44.573L16.4327 34.7421L15.3693 36.2238ZM17.9178 32.7787L31.1052 43.2851L32.2417 41.8588L19.0542 31.3523L17.9178 32.7787ZM20.6327 29.4699L33.2772 40.6237L34.4837 39.256L21.8391 28.1022L20.6327 29.4699ZM23.5079 26.3033L35.5786 38.0757L36.852 36.7701L24.7814 24.9975L23.5079 26.3033ZM26.5375 23.2847L38.0044 35.6462L39.3414 34.4059L27.8746 22.0445L26.5375 23.2847ZM29.7156 20.4204L40.5493 33.3404L41.9468 32.1686L31.1131 19.2487L29.7156 20.4204ZM33.0364 17.7164L43.2084 31.1634L44.6629 30.0632L34.4908 16.6162L33.0364 17.7164ZM36.4937 15.1788L45.9765 29.1205L47.4846 28.0947L38.0017 14.1531L36.4937 15.1788ZM40.0818 12.8137L48.8487 27.2164L50.4065 26.2681L41.6397 11.8655L40.0818 12.8137ZM43.7947 10.6275L51.8197 25.4563L53.4236 24.5882L45.3987 9.7595L43.7947 10.6275ZM47.6264 8.62636L54.8846 23.8451L56.5309 23.0599L49.2725 7.84122L47.6264 8.62636ZM51.5707 6.81667L58.0389 22.3876L59.7232 21.6879L53.2549 6.117L51.5707 6.81667ZM55.6214 5.20472L61.2776 21.0887L62.9957 20.477L57.3394 4.59297L55.6214 5.20472ZM59.7722 3.79734L64.5962 19.9535L66.3437 19.4316L61.5197 3.27555L59.7722 3.79734ZM64.0164 2.60051L67.9902 18.9866L69.7626 18.5567L65.7888 2.17067L64.0164 2.60051ZM68.3474 1.62088L71.4556 18.1929L73.2481 17.8568L70.1399 1.28477L68.3474 1.62088ZM72.7583 0.86494L74.9882 17.5778L76.7959 17.3366L74.566 0.623689L72.7583 0.86494ZM77.2421 0.338711L78.584 17.1462L80.4019 17.001L79.06 0.193545L77.2421 0.338711ZM81.7912 0.0484398L82.2392 16.9035L84.0624 16.855L83.6143 0L81.7912 0.0484398ZM85.9376 16.855L87.7607 16.9035L88.2088 0.0484398L86.3856 0L85.9376 16.855ZM89.598 17.001L91.416 17.1462L92.758 0.338711L90.94 0.193545L89.598 17.001ZM95.4339 0.623689L93.2041 17.3366L95.0118 17.5778L97.2416 0.86494L95.4339 0.623689ZM99.86 1.28477L96.7518 17.8568L98.5443 18.1929L101.653 1.62088L99.86 1.28477ZM104.211 2.17067L100.237 18.5567L102.01 18.9866L105.984 2.60051L104.211 2.17067ZM108.48 3.27555L103.656 19.4316L105.404 19.9535L110.228 3.79734L108.48 3.27555ZM112.66 4.59297L107.004 20.477L108.722 21.0887L114.379 5.20472L112.66 4.59297ZM116.745 6.117L110.277 21.6879L111.961 22.3876L118.429 6.81667L116.745 6.117Z" fill="url(#paint0_linear_10_111)"/>
<path d="M148.751 85.7951C148.751 50.5866 120.208 22.0445 84.9999 22.0445C49.7914 22.0445 21.2492 50.5866 21.2492 85.7951" stroke="#A28888" stroke-width="0.25" stroke-miterlimit="10"/>
<path d="M90.4501 86.4901C89.0333 89.5002 85.4446 90.7917 82.4345 89.3749C79.4244 87.9581 78.133 84.3693 79.5498 81.3592C80.9666 78.3492 106.367 38.5321 106.367 38.5321C106.367 38.5321 91.8671 83.4801 90.4501 86.4901Z" fill="#FD7B62"/>
<path d="M88.2701 85.4639C87.42 87.27 85.2668 88.0449 83.4607 87.1948C81.6546 86.3447 80.8798 84.1914 81.7298 82.3854C82.5799 80.5794 84.7332 79.8045 86.5392 80.6546C88.3453 81.5047 89.1202 83.6578 88.2701 85.4639Z" fill="#442A2A"/>
<defs>
<linearGradient id="paint0_linear_10_111" x1="0" y1="42.9528" x2="118.429" y2="42.9528" gradientUnits="userSpaceOnUse">
<stop stop-color="#8F22C6"/>
<stop offset="1" stop-color="#E659F6"/>
</linearGradient>
</defs>
</svg>
