<svg width="20" height="20" viewBox="0 0 20 20" fill="none" xmlns="http://www.w3.org/2000/svg">
<path fill-rule="evenodd" clip-rule="evenodd" d="M15.3956 19.2308C13.3156 19.2308 11.6274 17.5436 11.6274 15.4625C11.6274 13.3825 13.3156 11.6963 15.3956 11.6963C17.4766 11.6963 19.1638 13.3825 19.1638 15.4625C19.1638 17.5436 17.4766 19.2308 15.3956 19.2308Z" stroke="#FD7B62" stroke-width="1.5" stroke-linecap="round" stroke-linejoin="round"/>
<path fill-rule="evenodd" clip-rule="evenodd" d="M15.3956 8.3046C13.3156 8.3046 11.6274 6.61744 11.6274 4.53641C11.6274 2.45641 13.3156 0.769225 15.3956 0.769225C17.4766 0.769225 19.1638 2.45641 19.1638 4.53641C19.1638 6.61744 17.4766 8.3046 15.3956 8.3046Z" stroke="#E659F6" stroke-width="1.5" stroke-linecap="round" stroke-linejoin="round"/>
<path fill-rule="evenodd" clip-rule="evenodd" d="M4.5363 19.2308C2.45529 19.2308 0.769147 17.5436 0.769147 15.4625C0.769147 13.3825 2.45529 11.6963 4.5363 11.6963C6.61731 11.6963 8.30447 13.3825 8.30447 15.4625C8.30447 17.5436 6.61731 19.2308 4.5363 19.2308Z" stroke="#E659F6" stroke-width="1.5" stroke-linecap="round" stroke-linejoin="round"/>
<path fill-rule="evenodd" clip-rule="evenodd" d="M4.5363 8.3046C2.45529 8.3046 0.769147 6.61744 0.769147 4.53641C0.769147 2.45641 2.45529 0.769225 4.5363 0.769225C6.61731 0.769225 8.30447 2.45641 8.30447 4.53641C8.30447 6.61744 6.61731 8.3046 4.5363 8.3046Z" stroke="#E659F6" stroke-width="1.5" stroke-linecap="round" stroke-linejoin="round"/>
</svg>
