<svg width="23" height="26" viewBox="0 0 23 26" fill="none" xmlns="http://www.w3.org/2000/svg">
<path d="M11.4936 6.1235V10.1353" stroke="white" stroke-width="1.5" stroke-miterlimit="10" stroke-linecap="round"/>
<path d="M11.5177 0.774474C7.08424 0.774474 3.49412 4.36459 3.49412 8.79802V11.328C3.49412 12.1472 3.1568 13.376 2.73514 14.0748L1.20512 16.6288C0.265428 18.207 0.915986 19.9659 2.65081 20.5442C8.40945 22.4597 14.6379 22.4597 20.3966 20.5442C22.023 20.0021 22.7217 18.0986 21.8423 16.6288L20.3122 14.0748C19.8906 13.376 19.5533 12.1351 19.5533 11.328V8.79802C19.5412 4.38868 15.927 0.774474 11.5177 0.774474Z" stroke="white" stroke-width="1.5" stroke-miterlimit="10" stroke-linecap="round"/>
<path d="M15.5053 21.0381C15.5053 23.2428 13.6982 25.0499 11.4936 25.0499C10.3973 25.0499 9.38527 24.5921 8.66243 23.8693C7.93959 23.1464 7.48179 22.1344 7.48179 21.0381" stroke="white" stroke-width="1.5" stroke-miterlimit="10"/>
</svg>
